<svg width="139" height="42" viewBox="0 0 139 42" fill="none" xmlns="http://www.w3.org/2000/svg">
<g clip-path="url(#clip0_40_70)">
<path d="M0 0V-1H-1V0H0ZM138.833 0H139.833V-1H138.833V0ZM138.833 42V43H139.833V42H138.833ZM0 42H-1V43H0V42ZM0 1H138.833V-1H0V1ZM137.833 0V42H139.833V0H137.833ZM138.833 41H0V43H138.833V41ZM1 42V0H-1V42H1Z" fill="#929294"/>
<g clip-path="url(#clip1_40_70)">
<path d="M12.125 9.125H23.8125V20.8125H12.125V9.125Z" fill="#1976D2"/>
<path d="M25.2164 20.7836V9.125H36.875V20.7836H25.2164Z" fill="#1976D2"/>
<path d="M12.125 22.1875H23.8125V33.875H12.125V22.1875Z" fill="#1976D2"/>
<path d="M25.1875 33.875V22.1875H36.875V33.875H25.1875Z" fill="#1976D2"/>
</g>
<path d="M44.0464 25.6226H45.2778C46.34 25.6226 47.1483 25.3454 47.7026 24.791C48.257 24.2324 48.5342 23.4199 48.5342 22.3535C48.5342 21.2109 48.2485 20.3815 47.6772 19.8652C47.106 19.3447 46.2448 19.0845 45.0938 19.0845H44.0464V25.6226ZM42.3262 27V17.7007H45.0176C45.8301 17.7007 46.5579 17.7938 47.2012 17.98C47.8444 18.1662 48.3966 18.4476 48.8579 18.8242C49.3234 19.1966 49.6789 19.679 49.9243 20.2715C50.174 20.8597 50.2988 21.541 50.2988 22.3154C50.2988 23.8177 49.846 24.9751 48.9404 25.7876C48.0348 26.5959 46.7801 27 45.1763 27H42.3262ZM51.9302 27V17.7007H57.5669L57.4971 19.0654H53.6504V21.4648H57.3066V22.8296H53.6504V25.6289H57.6367L57.5796 27H51.9302ZM61.8516 27.127C60.7301 27.127 59.7251 26.8688 58.8364 26.3525L59.2554 24.9878C59.6532 25.2078 60.0848 25.3856 60.5503 25.521C61.02 25.6564 61.4771 25.7241 61.9214 25.7241C62.4673 25.7241 62.8799 25.6077 63.1592 25.375C63.4385 25.138 63.5781 24.7995 63.5781 24.3594C63.5781 23.7754 63.1888 23.3713 62.4102 23.147C62.3551 23.13 62.2007 23.0856 61.9468 23.0137C61.6929 22.9375 61.4538 22.8656 61.2295 22.7979C61.0094 22.7259 60.8507 22.6709 60.7534 22.6328C59.505 22.1927 58.8809 21.3717 58.8809 20.1699C58.8809 19.3278 59.1792 18.6782 59.7759 18.2212C60.3768 17.7642 61.1724 17.5356 62.1626 17.5356C63.284 17.5356 64.251 17.7663 65.0635 18.2275L64.543 19.4844C63.7135 19.112 62.9434 18.9258 62.2324 18.9258C61.7204 18.9258 61.3332 19.0168 61.0708 19.1987C60.8127 19.3765 60.6751 19.6748 60.6582 20.0938C60.6582 20.61 60.9142 20.9465 61.4263 21.103C61.5278 21.1411 61.7775 21.2236 62.1753 21.3506C62.5731 21.4775 62.8312 21.5601 62.9497 21.5981C63.8003 21.8774 64.4076 22.2244 64.7715 22.6392C65.1396 23.0539 65.3237 23.6315 65.3237 24.3721C65.3237 25.2565 65.0106 25.9378 64.3843 26.416C63.758 26.89 62.9137 27.127 61.8516 27.127ZM66.79 27V17.7007H68.5166V21.8901C68.8171 21.4924 69.4307 20.7497 70.3574 19.6621C71.2884 18.5745 71.8428 17.9207 72.0205 17.7007H74.0581L70.5415 21.8838L74.2803 27H72.2617L69.2275 22.8296L68.5166 23.4263V27H66.79ZM77.1494 27V19.0781H74.439V17.7007H81.5737V19.0781H78.876V27H77.1494ZM84.7476 24.8481C85.2088 25.4364 85.8901 25.7305 86.7915 25.7305C87.6929 25.7305 88.3721 25.4385 88.8291 24.8545C89.2904 24.2663 89.521 23.4368 89.521 22.3662C89.521 21.2829 89.2904 20.4429 88.8291 19.8462C88.3721 19.2495 87.695 18.9512 86.7979 18.9512C85.8965 18.9512 85.2131 19.2516 84.7476 19.8525C84.2863 20.4492 84.0557 21.2871 84.0557 22.3662C84.0557 23.4326 84.2863 24.2599 84.7476 24.8481ZM86.7852 27.1333C85.3844 27.1333 84.2778 26.7101 83.4653 25.8638C82.6571 25.0132 82.2529 23.841 82.2529 22.3472C82.2529 20.8449 82.6592 19.6727 83.4717 18.8306C84.2842 17.9884 85.3908 17.5674 86.7915 17.5674C88.1922 17.5674 89.2967 17.9906 90.105 18.8369C90.9132 19.679 91.3174 20.8512 91.3174 22.3535C91.3174 23.8389 90.9111 25.0068 90.0986 25.8574C89.2861 26.708 88.1816 27.1333 86.7852 27.1333ZM92.9043 27V17.6753H96.002C96.734 17.6753 97.3604 17.7705 97.8809 17.9609C98.4014 18.1471 98.8118 18.4518 99.1123 18.875C99.417 19.2982 99.5693 19.8293 99.5693 20.4683C99.5693 20.9126 99.5122 21.3083 99.3979 21.6553C99.2837 21.998 99.0954 22.3112 98.833 22.5947C98.5706 22.874 98.2004 23.0898 97.7222 23.2422C97.2482 23.3945 96.6748 23.4707 96.002 23.4707C95.4264 23.4707 94.9588 23.4538 94.5991 23.4199V27H92.9043ZM95.8179 22.2266C96.1691 22.2266 96.4738 22.1927 96.7319 22.125C96.9943 22.0573 97.1974 21.9705 97.3413 21.8647C97.4894 21.759 97.6058 21.6278 97.6904 21.4712C97.7793 21.3146 97.8364 21.1644 97.8618 21.0205C97.8914 20.8724 97.9062 20.7074 97.9062 20.5254C97.9062 20.0133 97.7412 19.624 97.4111 19.3574C97.0811 19.0908 96.6156 18.9575 96.0146 18.9575H94.5991V22.2139C94.6499 22.2223 95.0562 22.2266 95.8179 22.2266ZM103.276 27L106.698 17.6943H108.57L111.941 27H110.176L109.256 24.3721H106L105.073 27H103.276ZM106.431 23.0898H108.818C108.056 20.6481 107.665 19.387 107.644 19.3066L106.431 23.0898ZM112.823 27V17.6753H115.921C116.653 17.6753 117.279 17.7705 117.8 17.9609C118.32 18.1471 118.731 18.4518 119.031 18.875C119.336 19.2982 119.488 19.8293 119.488 20.4683C119.488 20.9126 119.431 21.3083 119.317 21.6553C119.203 21.998 119.014 22.3112 118.752 22.5947C118.49 22.874 118.119 23.0898 117.641 23.2422C117.167 23.3945 116.594 23.4707 115.921 23.4707C115.345 23.4707 114.878 23.4538 114.518 23.4199V27H112.823ZM115.737 22.2266C116.088 22.2266 116.393 22.1927 116.651 22.125C116.913 22.0573 117.116 21.9705 117.26 21.8647C117.408 21.759 117.525 21.6278 117.609 21.4712C117.698 21.3146 117.755 21.1644 117.781 21.0205C117.81 20.8724 117.825 20.7074 117.825 20.5254C117.825 20.0133 117.66 19.624 117.33 19.3574C117 19.0908 116.535 18.9575 115.934 18.9575H114.518V22.2139C114.569 22.2223 114.975 22.2266 115.737 22.2266ZM120.732 27V17.6753H123.83C124.562 17.6753 125.188 17.7705 125.709 17.9609C126.229 18.1471 126.64 18.4518 126.94 18.875C127.245 19.2982 127.397 19.8293 127.397 20.4683C127.397 20.9126 127.34 21.3083 127.226 21.6553C127.112 21.998 126.924 22.3112 126.661 22.5947C126.399 22.874 126.028 23.0898 125.55 23.2422C125.076 23.3945 124.503 23.4707 123.83 23.4707C123.255 23.4707 122.787 23.4538 122.427 23.4199V27H120.732ZM123.646 22.2266C123.997 22.2266 124.302 22.1927 124.56 22.125C124.822 22.0573 125.026 21.9705 125.169 21.8647C125.318 21.759 125.434 21.6278 125.519 21.4712C125.607 21.3146 125.665 21.1644 125.69 21.0205C125.72 20.8724 125.734 20.7074 125.734 20.5254C125.734 20.0133 125.569 19.624 125.239 19.3574C124.909 19.0908 124.444 18.9575 123.843 18.9575H122.427V22.2139C122.478 22.2223 122.884 22.2266 123.646 22.2266Z" fill="#929294"/>
</g>
<defs>
<clipPath id="clip0_40_70">
<rect width="139" height="42" fill="white"/>
</clipPath>
<clipPath id="clip1_40_70">
<rect width="33" height="33" fill="white" transform="translate(8 5)"/>
</clipPath>
</defs>
</svg>
