<svg width="23" height="19" viewBox="0 0 23 19" fill="none" xmlns="http://www.w3.org/2000/svg">
<path d="M0.00130424 16.8799C2.08359 18.2228 4.55364 19 7.20144 19C14.6401 19 20.6701 12.8674 20.6701 5.30375C20.6701 5.1149 20.6662 4.92745 20.659 4.74056C20.9281 4.52525 22.5921 3.16896 23 2.29704C23 2.29704 21.6487 2.86813 20.3261 3.00266C20.3235 3.00266 20.3203 3.00329 20.3177 3.00329C20.3177 3.00329 20.3203 3.00196 20.3248 2.99868C20.4467 2.91588 22.1504 1.7365 22.3811 0.331271C22.3811 0.331271 21.4253 0.850064 20.087 1.30393C19.8654 1.37877 19.6335 1.45236 19.3944 1.52056C18.5318 0.584349 17.3056 0 15.9445 0C13.3338 0 11.2183 2.15064 11.2183 4.80346C11.2183 5.17781 11.2606 5.54217 11.3408 5.89201C10.9759 5.87679 5.4202 5.56004 1.64064 0.905636C1.64064 0.905636 -0.618233 4.0415 2.98674 7.2661C2.98674 7.2661 1.89088 7.2217 0.94544 6.64727C0.94544 6.64727 0.598186 10.4463 4.68072 11.4176C4.68072 11.4176 3.8774 11.7271 2.59582 11.5064C2.59582 11.5064 3.31251 14.5761 6.93966 14.8629C6.93966 14.8629 4.07148 17.4977 0 16.8795L0.00130424 16.8799Z" fill="#302F42"/>
</svg>
