<svg width="139" height="42" viewBox="0 0 139 42" fill="none" xmlns="http://www.w3.org/2000/svg">
<path d="M42.1492 21.8655C42.1271 19.2342 44.3048 17.9554 44.4004 17.8966C43.1644 16.1032 41.2516 15.8533 40.5821 15.8313C38.9783 15.6623 37.4186 16.7941 36.602 16.7941C35.7707 16.7941 34.5053 15.8533 33.1516 15.8754C31.408 15.9048 29.7674 16.9117 28.8772 18.4846C27.0306 21.6817 28.4063 26.3856 30.1794 28.9727C31.0695 30.2368 32.0995 31.6554 33.4606 31.6039C34.7848 31.5525 35.2851 30.7587 36.8816 30.7587C38.4707 30.7587 38.9342 31.6039 40.3173 31.5745C41.7445 31.5525 42.6347 30.303 43.4955 29.0241C44.5181 27.5762 44.9301 26.143 44.9448 26.0695C44.908 26.0548 42.1786 25.0112 42.1492 21.8655Z" fill="#929294"/>
<path d="M39.5375 14.1334C40.2511 13.2441 40.7367 12.0314 40.6043 10.7966C39.5743 10.8407 38.2795 11.5096 37.5364 12.3842C36.8816 13.1559 36.2931 14.4127 36.4402 15.596C37.6026 15.6842 38.7944 15.008 39.5375 14.1334Z" fill="#929294"/>
<path d="M61.3656 26.642H59.5116L58.4964 23.4522H54.965L54.0013 26.642H52.1988L55.6934 15.7864H57.8563L61.3656 26.642ZM58.1947 22.1145L57.2751 19.2849C57.1795 18.9909 56.9955 18.3147 56.7307 17.2416H56.6939C56.5836 17.7047 56.4143 18.3882 56.1789 19.2849L55.274 22.1145H58.1947Z" fill="#929294"/>
<path d="M70.3485 22.6363C70.3485 23.9667 69.988 25.0177 69.2597 25.7894C68.6123 26.4803 67.803 26.8184 66.8466 26.8184C65.8092 26.8184 65.0662 26.4509 64.6101 25.7086V29.8171H62.8664V21.3869C62.8664 20.549 62.8444 19.6964 62.8002 18.8145H64.3305L64.4261 20.0566H64.4556C65.0368 19.1232 65.9196 18.6528 67.0967 18.6528C68.0237 18.6528 68.7888 19.0203 69.4068 19.7479C70.0395 20.4829 70.3485 21.4383 70.3485 22.6363ZM68.5755 22.6951C68.5755 21.9308 68.4063 21.306 68.0605 20.8136C67.6853 20.2991 67.1776 20.0419 66.5449 20.0419C66.1182 20.0419 65.7283 20.1889 65.3752 20.4682C65.0294 20.7548 64.794 21.1223 64.691 21.5853C64.6395 21.7985 64.6101 21.9749 64.6101 22.1145V23.4228C64.6101 23.9887 64.7866 24.4738 65.1324 24.8633C65.4782 25.2529 65.9343 25.4513 66.4934 25.4513C67.1482 25.4513 67.6558 25.1941 68.0237 24.6943C68.3915 24.1872 68.5755 23.5257 68.5755 22.6951Z" fill="#929294"/>
<path d="M79.3534 22.6363C79.3534 23.9667 78.9929 25.0177 78.2646 25.7894C77.6172 26.4803 76.8079 26.8184 75.8515 26.8184C74.8142 26.8184 74.0711 26.4509 73.615 25.7086V29.8171H71.8714V21.3869C71.8714 20.549 71.8493 19.6964 71.8052 18.8145H73.3354L73.4311 20.0566H73.4605C74.0417 19.1232 74.9245 18.6528 76.1016 18.6528C77.0286 18.6528 77.7937 19.0203 78.4117 19.7479C79.0444 20.4829 79.3534 21.4383 79.3534 22.6363ZM77.5804 22.6951C77.5804 21.9308 77.4112 21.306 77.0654 20.8136C76.6902 20.2991 76.1826 20.0419 75.5499 20.0419C75.1232 20.0419 74.7332 20.1889 74.3801 20.4682C74.0343 20.7548 73.8063 21.1223 73.6959 21.5853C73.6444 21.7985 73.615 21.9749 73.615 22.1145V23.4228C73.615 23.9887 73.7916 24.4738 74.1373 24.8633C74.4831 25.2529 74.9392 25.4513 75.4984 25.4513C76.1531 25.4513 76.6681 25.1941 77.0286 24.6943C77.4038 24.1872 77.5804 23.5257 77.5804 22.6951Z" fill="#929294"/>
<path d="M89.4325 23.5992C89.4325 24.5252 89.1088 25.2749 88.4687 25.8556C87.7624 26.4876 86.7766 26.8037 85.5112 26.8037C84.3415 26.8037 83.4071 26.5758 82.7009 26.1275L83.1055 24.6796C83.8706 25.1279 84.7093 25.3558 85.6216 25.3558C86.2763 25.3558 86.7913 25.2088 87.1518 24.9148C87.5197 24.6208 87.7036 24.2239 87.7036 23.7315C87.7036 23.2905 87.5491 22.923 87.2548 22.6217C86.9532 22.3203 86.4529 22.041 85.754 21.7838C83.8338 21.0709 82.8848 20.0345 82.8848 18.6748C82.8848 17.7855 83.2232 17.0579 83.8927 16.4846C84.5622 15.9187 85.4524 15.632 86.5633 15.632C87.5491 15.632 88.3731 15.8011 89.0278 16.1465L88.5864 17.5577C87.9684 17.2269 87.2769 17.0579 86.4971 17.0579C85.8864 17.0579 85.4009 17.2122 85.0551 17.5062C84.7682 17.7782 84.621 18.1015 84.621 18.4911C84.621 18.9174 84.7902 19.2775 85.1213 19.5494C85.4082 19.8067 85.9379 20.086 86.703 20.3873C87.6374 20.7622 88.3216 21.2031 88.763 21.7103C89.2118 22.2174 89.4325 22.8495 89.4325 23.5992Z" fill="#929294"/>
<path d="M95.2004 20.1227H93.2802V23.9225C93.2802 24.8854 93.6186 25.3705 94.2955 25.3705C94.6045 25.3705 94.862 25.3411 95.068 25.2896L95.1195 26.6126C94.7737 26.7375 94.3249 26.8037 93.7658 26.8037C93.0742 26.8037 92.5445 26.5905 92.1546 26.1716C91.7647 25.7526 91.5734 25.0471 91.5734 24.0622V20.1154H90.433V18.8145H91.5734V17.3812L93.2802 16.8668V18.8145H95.2004V20.1227Z" fill="#929294"/>
<path d="M103.837 22.6657C103.837 23.8711 103.492 24.8559 102.807 25.6277C102.086 26.4214 101.13 26.8183 99.9382 26.8183C98.7905 26.8183 97.8709 26.4361 97.1867 25.6791C96.5025 24.9221 96.1641 23.9593 96.1641 22.798C96.1641 21.5853 96.5172 20.5931 97.2161 19.8214C97.9224 19.0496 98.8714 18.6601 100.063 18.6601C101.211 18.6601 102.138 19.0423 102.837 19.8067C103.506 20.5416 103.837 21.4971 103.837 22.6657ZM102.035 22.7025C102.035 21.9822 101.88 21.3722 101.571 20.8577C101.204 20.2329 100.681 19.9243 100.004 19.9243C99.3055 19.9243 98.7684 20.2329 98.408 20.8577C98.0916 21.3722 97.9445 21.9969 97.9445 22.7392C97.9445 23.4595 98.099 24.0769 98.408 24.584C98.7832 25.2087 99.3129 25.5174 99.9897 25.5174C100.652 25.5174 101.174 25.2014 101.557 24.5693C101.873 24.0401 102.035 23.4227 102.035 22.7025Z" fill="#929294"/>
<path d="M109.502 20.3432C109.333 20.3138 109.149 20.2991 108.951 20.2991C108.34 20.2991 107.862 20.527 107.531 20.99C107.244 21.3942 107.097 21.9161 107.097 22.5334V26.642H105.353V21.2766C105.353 20.3726 105.338 19.5494 105.302 18.8145H106.817L106.883 20.3138H106.935C107.119 19.7993 107.406 19.3804 107.803 19.0717C108.193 18.7924 108.612 18.6528 109.061 18.6528C109.223 18.6528 109.37 18.6675 109.495 18.6822L109.502 20.3432Z" fill="#929294"/>
<path d="M117.286 22.357C117.286 22.6657 117.264 22.9303 117.22 23.1434H111.996C112.018 23.9152 112.269 24.5105 112.754 24.9147C113.196 25.2749 113.762 25.4586 114.461 25.4586C115.233 25.4586 115.94 25.3337 116.572 25.0911L116.845 26.2965C116.102 26.6199 115.226 26.7816 114.218 26.7816C113.004 26.7816 112.048 26.4214 111.356 25.7085C110.665 24.9956 110.319 24.0328 110.319 22.8348C110.319 21.6588 110.643 20.6739 111.29 19.8875C111.967 19.0496 112.879 18.6307 114.027 18.6307C115.153 18.6307 116.013 19.0496 116.587 19.8875C117.051 20.5637 117.286 21.3795 117.286 22.357ZM115.623 21.9087C115.638 21.3942 115.52 20.9459 115.285 20.571C114.983 20.0859 114.52 19.8434 113.902 19.8434C113.335 19.8434 112.872 20.0786 112.519 20.549C112.232 20.9238 112.055 21.3795 112.004 21.9013L115.623 21.9087Z" fill="#929294"/>
<path d="M0 0V-1H-1V0H0ZM138.833 0H139.833V-1H138.833V0ZM138.833 42V43H139.833V42H138.833ZM0 42H-1V43H0V42ZM0 1H138.833V-1H0V1ZM137.833 0V42H139.833V0H137.833ZM138.833 41H0V43H138.833V41ZM1 42V0H-1V42H1Z" fill="#929294"/>
</svg>
