<svg width="22" height="23" viewBox="0 0 22 23" fill="none" xmlns="http://www.w3.org/2000/svg">
<path d="M15.6094 0H6.39066C2.86683 0 0 2.99714 0 6.68114V16.3189C0 20.0029 2.86683 23 6.39066 23H15.6093C19.1332 23 22 20.0029 22 16.3189V6.68114C22 2.99714 19.1332 0 15.6094 0ZM20.2812 16.3189C20.2812 19.0121 18.1854 21.2031 15.6094 21.2031H6.39066C3.81455 21.2031 1.71875 19.0121 1.71875 16.3189V6.68114C1.71875 3.98794 3.81455 1.79688 6.39066 1.79688H15.6093C18.1854 1.79688 20.2812 3.98794 20.2812 6.68114V16.3189Z" fill="#302F42"/>
<path d="M11 5.30078C7.73034 5.30078 5.07031 8.08171 5.07031 11.5C5.07031 14.9183 7.73034 17.6992 11 17.6992C14.2697 17.6992 16.9297 14.9183 16.9297 11.5C16.9297 8.08171 14.2697 5.30078 11 5.30078ZM11 15.9023C8.6781 15.9023 6.78906 13.9274 6.78906 11.5C6.78906 9.07256 8.6781 7.09766 11 7.09766C13.3219 7.09766 15.2109 9.07256 15.2109 11.5C15.2109 13.9274 13.3219 15.9023 11 15.9023Z" fill="#302F42"/>
<path d="M17.0156 6.10938C17.4902 6.10938 17.875 5.70713 17.875 5.21094C17.875 4.71474 17.4902 4.3125 17.0156 4.3125C16.541 4.3125 16.1562 4.71474 16.1562 5.21094C16.1562 5.70713 16.541 6.10938 17.0156 6.10938Z" fill="#302F42"/>
</svg>
