<svg width="139" height="42" viewBox="0 0 139 42" fill="none" xmlns="http://www.w3.org/2000/svg">
<path d="M67.3142 18.0507C65.2771 18.0507 63.6644 19.5882 63.6644 21.7238C63.6644 23.7739 65.2771 25.3969 67.3142 25.3969C69.3513 25.3969 70.964 23.8593 70.964 21.7238C70.964 19.5028 69.3513 18.0507 67.3142 18.0507ZM67.3142 23.8593C66.2108 23.8593 65.2771 22.9197 65.2771 21.6383C65.2771 20.357 66.2108 19.4174 67.3142 19.4174C68.4176 19.4174 69.3513 20.2716 69.3513 21.6383C69.3513 22.9197 68.4176 23.8593 67.3142 23.8593ZM59.4205 18.0507C57.3834 18.0507 55.7708 19.5882 55.7708 21.7238C55.7708 23.7739 57.3834 25.3969 59.4205 25.3969C61.4576 25.3969 63.0703 23.8593 63.0703 21.7238C63.0703 19.5028 61.4576 18.0507 59.4205 18.0507ZM59.4205 23.8593C58.3171 23.8593 57.3834 22.9197 57.3834 21.6383C57.3834 20.357 58.3171 19.4174 59.4205 19.4174C60.5239 19.4174 61.4576 20.2716 61.4576 21.6383C61.4576 22.9197 60.5239 23.8593 59.4205 23.8593ZM49.9991 19.1611V20.6987H53.6488C53.5639 21.5529 53.2244 22.2363 52.8 22.6634C52.2908 23.1759 51.442 23.7739 49.9991 23.7739C47.7073 23.7739 46.0098 21.98 46.0098 19.6737C46.0098 17.3673 47.7922 15.5735 49.9991 15.5735C51.1873 15.5735 52.121 16.086 52.8 16.6839L53.9034 15.5735C52.9698 14.7193 51.7815 14.0359 50.0839 14.0359C47.0283 14.0359 44.3971 16.5985 44.3971 19.6737C44.3971 22.7488 47.0283 25.3114 50.0839 25.3114C51.7815 25.3114 52.9698 24.7989 53.9883 23.6884C55.0069 22.6634 55.3464 21.2112 55.3464 20.1008C55.3464 19.7591 55.3464 19.4174 55.2615 19.1611H49.9991ZM88.5337 20.357C88.1942 19.5028 87.3454 18.0507 85.4781 18.0507C83.6108 18.0507 82.083 19.5028 82.083 21.7238C82.083 23.7739 83.6108 25.3969 85.6479 25.3969C87.2605 25.3969 88.2791 24.3718 88.6186 23.7739L87.4303 22.9197C87.0059 23.5176 86.4966 23.9447 85.6479 23.9447C84.7991 23.9447 84.2898 23.603 83.8654 22.8342L88.7035 20.7841L88.5337 20.357ZM83.6108 21.5529C83.6108 20.1862 84.7142 19.4174 85.4781 19.4174C86.0723 19.4174 86.6664 19.7591 86.8362 20.1862L83.6108 21.5529ZM79.6215 25.0552H81.2342V14.3776H79.6215V25.0552ZM77.0752 18.8195C76.6508 18.3924 75.9718 17.9652 75.123 17.9652C73.3405 17.9652 71.643 19.5882 71.643 21.6383C71.643 23.6884 73.2557 25.226 75.123 25.226C75.9718 25.226 76.6508 24.7989 76.9903 24.3718H77.0752V24.8843C77.0752 26.2511 76.3113 27.0199 75.123 27.0199C74.1893 27.0199 73.5103 26.3365 73.3405 25.7385L71.9825 26.3365C72.4069 27.2761 73.4254 28.472 75.2079 28.472C77.0752 28.472 78.603 27.3615 78.603 24.7135V18.2215H77.0752V18.8195ZM75.2079 23.8593C74.1044 23.8593 73.1708 22.9197 73.1708 21.6383C73.1708 20.357 74.1044 19.4174 75.2079 19.4174C76.3113 19.4174 77.16 20.357 77.16 21.6383C77.16 22.9197 76.3113 23.8593 75.2079 23.8593ZM95.9181 14.3776H92.0986V25.0552H93.7113V21.0404H95.9181C97.7006 21.0404 99.3981 19.7591 99.3981 17.709C99.3981 15.6589 97.7006 14.3776 95.9181 14.3776ZM96.003 19.5028H93.7113V15.8297H96.003C97.1913 15.8297 97.8703 16.8548 97.8703 17.6236C97.7854 18.5632 97.1064 19.5028 96.003 19.5028ZM105.764 17.9652C104.576 17.9652 103.387 18.4778 102.963 19.5882L104.406 20.1862C104.745 19.5882 105.255 19.4174 105.849 19.4174C106.698 19.4174 107.462 19.9299 107.546 20.7841V20.8696C107.292 20.6987 106.613 20.4425 105.934 20.4425C104.406 20.4425 102.878 21.2967 102.878 22.8342C102.878 24.2864 104.151 25.226 105.509 25.226C106.613 25.226 107.122 24.7135 107.546 24.201H107.631V25.0552H109.159V20.955C108.989 19.0757 107.546 17.9652 105.764 17.9652ZM105.594 23.8593C105.085 23.8593 104.321 23.603 104.321 22.9197C104.321 22.0654 105.255 21.8092 106.019 21.8092C106.698 21.8092 107.037 21.98 107.462 22.1509C107.292 23.1759 106.443 23.8593 105.594 23.8593ZM114.506 18.2215L112.724 22.8342H112.639L110.772 18.2215H109.074L111.875 24.7135L110.263 28.3012H111.875L116.204 18.2215H114.506ZM100.247 25.0552H101.86V14.3776H100.247V25.0552Z" fill="#929294"/>
<path d="M18.3395 10.5404C18.0849 10.7967 18 11.2238 18 11.7363V30.6143C18 31.1268 18.1698 31.5539 18.4244 31.8102L18.5093 31.8956L29.0342 21.3034V21.1326L18.3395 10.5404Z" fill="url(#paint0_linear_12_121)"/>
<path d="M32.4292 24.8911L28.9492 21.3889V21.1326L32.4292 17.6304L32.5141 17.7158L36.6731 20.1076C37.8614 20.7909 37.8614 21.9014 36.6731 22.5848L32.4292 24.8911Z" fill="url(#paint1_linear_12_121)"/>
<path d="M32.5141 24.8057L28.9492 21.218L18.3395 31.8956C18.7639 32.3227 19.358 32.3227 20.1219 31.9811L32.5141 24.8057Z" fill="url(#paint2_linear_12_121)"/>
<path d="M32.5141 17.6304L20.1219 10.5404C19.358 10.1133 18.7639 10.1988 18.3395 10.6259L28.9492 21.2181L32.5141 17.6304Z" fill="url(#paint3_linear_12_121)"/>
<path opacity="0.2" d="M32.4292 24.7203L20.1219 31.7248C19.4429 32.1519 18.8487 32.0665 18.4244 31.7248L18.3395 31.8102L18.4244 31.8956C18.8487 32.2373 19.4429 32.3227 20.1219 31.8956L32.4292 24.7203Z" fill="#929294"/>
<path opacity="0.2" d="M18.3395 31.7248C18.0849 31.4685 18 31.0414 18 30.5289V30.6143C18 31.1268 18.1698 31.5539 18.4244 31.8102V31.7248H18.3395ZM36.6732 22.3285L32.4293 24.7203L32.5142 24.8057L36.6732 22.4139C37.2673 22.0722 37.522 21.6451 37.522 21.218C37.522 21.6451 37.1825 21.9868 36.6732 22.3285Z" fill="#929294"/>
<path opacity="0.2" d="M20.122 10.6259L36.6732 20.1076C37.1825 20.4493 37.522 20.791 37.522 21.2181C37.522 20.791 37.2673 20.3639 36.6732 20.0222L20.122 10.5404C18.9337 9.85708 18 10.3696 18 11.7363V11.8218C18 10.5404 18.9337 9.9425 20.122 10.6259Z" fill="#929294"/>
<path d="M0 0V-1H-1V0H0ZM138.833 0H139.833V-1H138.833V0ZM138.833 42V43H139.833V42H138.833ZM0 42H-1V43H0V42ZM0 1H138.833V-1H0V1ZM137.833 0V42H139.833V0H137.833ZM138.833 41H0V43H138.833V41ZM1 42V0H-1V42H1Z" fill="#929294"/>
<defs>
<linearGradient id="paint0_linear_12_121" x1="28.0156" y1="11.574" x2="13.6797" y2="25.8179" gradientUnits="userSpaceOnUse">
<stop stop-color="#00A0FF"/>
<stop offset="0.007" stop-color="#00A1FF"/>
<stop offset="0.26" stop-color="#00BEFF"/>
<stop offset="0.512" stop-color="#00D2FF"/>
<stop offset="0.76" stop-color="#00DFFF"/>
<stop offset="1" stop-color="#00E3FF"/>
</linearGradient>
<linearGradient id="paint1_linear_12_121" x1="38.2298" y1="21.2189" x2="17.6918" y2="21.2189" gradientUnits="userSpaceOnUse">
<stop stop-color="#FFE000"/>
<stop offset="0.409" stop-color="#FFBD00"/>
<stop offset="0.775" stop-color="#FFA500"/>
<stop offset="1" stop-color="#FF9C00"/>
</linearGradient>
<linearGradient id="paint2_linear_12_121" x1="30.5848" y1="23.1793" x2="11.1451" y2="42.4955" gradientUnits="userSpaceOnUse">
<stop stop-color="#FF3A44"/>
<stop offset="1" stop-color="#C31162"/>
</linearGradient>
<linearGradient id="paint3_linear_12_121" x1="15.7057" y1="4.28422" x2="24.3869" y2="12.9102" gradientUnits="userSpaceOnUse">
<stop stop-color="#32A071"/>
<stop offset="0.069" stop-color="#2DA771"/>
<stop offset="0.476" stop-color="#15CF74"/>
<stop offset="0.801" stop-color="#06E775"/>
<stop offset="1" stop-color="#00F076"/>
</linearGradient>
</defs>
</svg>
