<svg width="24" height="17" viewBox="0 0 24 17" fill="none" xmlns="http://www.w3.org/2000/svg">
<path fill-rule="evenodd" clip-rule="evenodd" d="M21.3904 16.1806C22.4115 15.9057 23.2166 15.1006 23.4915 14.0795C24.0021 12.214 23.9824 8.32593 23.9824 8.32593C23.9824 8.32593 23.9824 4.4575 23.4915 2.59202C23.2166 1.57091 22.4115 0.765806 21.3904 0.490892C19.5249 -2.47955e-05 12.063 -2.47955e-05 12.063 -2.47955e-05C12.063 -2.47955e-05 4.62066 -2.47955e-05 2.73554 0.510529C1.71443 0.785442 0.909325 1.59055 0.634411 2.61166C0.143494 4.4575 0.143494 8.34557 0.143494 8.34557C0.143494 8.34557 0.143494 12.214 0.634411 14.0795C0.909325 15.1006 1.73407 15.9253 2.73554 16.2002C4.60102 16.6912 12.063 16.6912 12.063 16.6912C12.063 16.6912 19.5249 16.6912 21.3904 16.1806ZM15.8921 8.34556L9.68695 4.77168V11.9194L15.8921 8.34556Z" fill="#302F42"/>
</svg>
